<svg width="64" height="64" viewBox="0 0 64 64" fill="none" xmlns="http://www.w3.org/2000/svg">
  <!-- Background circle -->
  <circle cx="32" cy="32" r="32" fill="#0A1929"/>
  
  <!-- Top gift box (teal) -->
  <g transform="translate(32, 12)">
    <rect x="-8" y="0" width="16" height="16" rx="2" fill="url(#teal-gradient)"/>
    <rect x="-1" y="0" width="2" height="16" fill="white" opacity="0.9"/>
    <rect x="-8" y="7" width="16" height="2" fill="white" opacity="0.9"/>
    <!-- Bow -->
    <circle cx="-4" cy="2" r="2" fill="white" opacity="0.8"/>
    <circle cx="4" cy="2" r="2" fill="white" opacity="0.8"/>
  </g>
  
  <!-- Middle gift box (green) -->
  <g transform="translate(32, 28)">
    <rect x="-10" y="0" width="20" height="18" rx="2" fill="url(#green-gradient)"/>
    <rect x="-1" y="0" width="2" height="18" fill="#FFD700" opacity="0.9"/>
    <rect x="-10" y="8" width="20" height="2" fill="#FFD700" opacity="0.9"/>
    <!-- Bow -->
    <circle cx="-5" cy="2" r="2.5" fill="#FFD700" opacity="0.8"/>
    <circle cx="5" cy="2" r="2.5" fill="#FFD700" opacity="0.8"/>
  </g>
  
  <!-- Bottom gift box (blue) -->
  <g transform="translate(32, 46)">
    <rect x="-11" y="0" width="22" height="16" rx="2" fill="url(#blue-gradient)"/>
    <rect x="-1" y="0" width="2" height="16" fill="white" opacity="0.9"/>
    <rect x="-11" y="7" width="22" height="2" fill="white" opacity="0.9"/>
    <!-- Bow -->
    <circle cx="-5" cy="2" r="2.5" fill="white" opacity="0.8"/>
    <circle cx="5" cy="2" r="2.5" fill="white" opacity="0.8"/>
  </g>
  
  <!-- Star decorations -->
  <path d="M 8 8 L 9 10 L 11 10 L 9.5 11.5 L 10 13.5 L 8 12 L 6 13.5 L 6.5 11.5 L 5 10 L 7 10 Z" fill="#FFD700" opacity="0.6"/>
  <path d="M 54 10 L 55 12 L 57 12 L 55.5 13.5 L 56 15.5 L 54 14 L 52 15.5 L 52.5 13.5 L 51 12 L 53 12 Z" fill="#FFD700" opacity="0.6"/>
  
  <!-- Gradients -->
  <defs>
    <linearGradient id="teal-gradient" x1="0%" y1="0%" x2="100%" y2="100%">
      <stop offset="0%" style="stop-color:#14B8A6;stop-opacity:1" />
      <stop offset="100%" style="stop-color:#0D9488;stop-opacity:1" />
    </linearGradient>
    <linearGradient id="green-gradient" x1="0%" y1="0%" x2="100%" y2="100%">
      <stop offset="0%" style="stop-color:#22C55E;stop-opacity:1" />
      <stop offset="100%" style="stop-color:#16A34A;stop-opacity:1" />
    </linearGradient>
    <linearGradient id="blue-gradient" x1="0%" y1="0%" x2="100%" y2="100%">
      <stop offset="0%" style="stop-color:#3B82F6;stop-opacity:1" />
      <stop offset="100%" style="stop-color:#2563EB;stop-opacity:1" />
    </linearGradient>
  </defs>
</svg>
